<mxfile host="app.diagrams.net" agent="Mozilla/5.0 (Windows NT 10.0; Win64; x64) AppleWebKit/537.36 (KHTML, like Gecko) Chrome/138.0.0.0 Safari/537.36 Edg/138.0.0.0" version="27.2.0">
  <diagram name="Page-1" id="9hBicgpaezlZ8oG8wvYq">
    <mxGraphModel dx="1159" dy="526" grid="1" gridSize="10" guides="1" tooltips="1" connect="1" arrows="1" fold="1" page="1" pageScale="1" pageWidth="850" pageHeight="1100" math="0" shadow="0">
      <root>
        <mxCell id="0" />
        <mxCell id="1" parent="0" />
        <mxCell id="y5rQImOxIK2gZxBgFwPA-2" value="" style="sketch=0;outlineConnect=0;fontColor=#232F3E;gradientColor=none;fillColor=#E7157B;strokeColor=none;dashed=0;verticalLabelPosition=bottom;verticalAlign=top;align=center;html=1;fontSize=12;fontStyle=0;aspect=fixed;pointerEvents=1;shape=mxgraph.aws4.endpoint;" vertex="1" parent="1">
          <mxGeometry x="180" y="170" width="78" height="78" as="geometry" />
        </mxCell>
        <mxCell id="y5rQImOxIK2gZxBgFwPA-6" style="edgeStyle=orthogonalEdgeStyle;rounded=0;orthogonalLoop=1;jettySize=auto;html=1;" edge="1" parent="1" source="y5rQImOxIK2gZxBgFwPA-3" target="y5rQImOxIK2gZxBgFwPA-4">
          <mxGeometry relative="1" as="geometry" />
        </mxCell>
        <mxCell id="y5rQImOxIK2gZxBgFwPA-8" style="edgeStyle=orthogonalEdgeStyle;rounded=0;orthogonalLoop=1;jettySize=auto;html=1;" edge="1" parent="1" source="y5rQImOxIK2gZxBgFwPA-3" target="y5rQImOxIK2gZxBgFwPA-7">
          <mxGeometry relative="1" as="geometry" />
        </mxCell>
        <mxCell id="y5rQImOxIK2gZxBgFwPA-3" value="" style="outlineConnect=0;dashed=0;verticalLabelPosition=bottom;verticalAlign=top;align=center;html=1;shape=mxgraph.aws3.lambda_function;fillColor=#F58534;gradientColor=none;" vertex="1" parent="1">
          <mxGeometry x="390" y="173" width="69" height="72" as="geometry" />
        </mxCell>
        <mxCell id="y5rQImOxIK2gZxBgFwPA-4" value="" style="sketch=0;points=[[0,0,0],[0.25,0,0],[0.5,0,0],[0.75,0,0],[1,0,0],[0,1,0],[0.25,1,0],[0.5,1,0],[0.75,1,0],[1,1,0],[0,0.25,0],[0,0.5,0],[0,0.75,0],[1,0.25,0],[1,0.5,0],[1,0.75,0]];outlineConnect=0;fontColor=#232F3E;fillColor=#C925D1;strokeColor=#ffffff;dashed=0;verticalLabelPosition=bottom;verticalAlign=top;align=center;html=1;fontSize=12;fontStyle=0;aspect=fixed;shape=mxgraph.aws4.resourceIcon;resIcon=mxgraph.aws4.dynamodb;" vertex="1" parent="1">
          <mxGeometry x="640" y="170" width="78" height="78" as="geometry" />
        </mxCell>
        <mxCell id="y5rQImOxIK2gZxBgFwPA-5" style="edgeStyle=orthogonalEdgeStyle;rounded=0;orthogonalLoop=1;jettySize=auto;html=1;entryX=0;entryY=0.5;entryDx=0;entryDy=0;entryPerimeter=0;" edge="1" parent="1" source="y5rQImOxIK2gZxBgFwPA-2" target="y5rQImOxIK2gZxBgFwPA-3">
          <mxGeometry relative="1" as="geometry" />
        </mxCell>
        <mxCell id="y5rQImOxIK2gZxBgFwPA-7" value="" style="outlineConnect=0;dashed=0;verticalLabelPosition=bottom;verticalAlign=top;align=center;html=1;shape=mxgraph.aws3.ses;fillColor=#D9A741;gradientColor=none;" vertex="1" parent="1">
          <mxGeometry x="385" y="350" width="79.5" height="93" as="geometry" />
        </mxCell>
        <mxCell id="y5rQImOxIK2gZxBgFwPA-10" style="edgeStyle=orthogonalEdgeStyle;rounded=0;orthogonalLoop=1;jettySize=auto;html=1;" edge="1" parent="1" source="y5rQImOxIK2gZxBgFwPA-9" target="y5rQImOxIK2gZxBgFwPA-2">
          <mxGeometry relative="1" as="geometry" />
        </mxCell>
        <mxCell id="y5rQImOxIK2gZxBgFwPA-9" value="" style="shape=actor;whiteSpace=wrap;html=1;" vertex="1" parent="1">
          <mxGeometry x="10" y="179" width="40" height="60" as="geometry" />
        </mxCell>
        <mxCell id="y5rQImOxIK2gZxBgFwPA-11" value="USER" style="text;html=1;align=center;verticalAlign=middle;whiteSpace=wrap;rounded=0;" vertex="1" parent="1">
          <mxGeometry y="248" width="60" height="30" as="geometry" />
        </mxCell>
        <mxCell id="y5rQImOxIK2gZxBgFwPA-12" value="APIGW ENDPOINT" style="text;html=1;align=center;verticalAlign=middle;whiteSpace=wrap;rounded=0;" vertex="1" parent="1">
          <mxGeometry x="189" y="260" width="60" height="30" as="geometry" />
        </mxCell>
        <mxCell id="y5rQImOxIK2gZxBgFwPA-13" value="LAMBDA" style="text;html=1;align=center;verticalAlign=middle;whiteSpace=wrap;rounded=0;" vertex="1" parent="1">
          <mxGeometry x="395" y="130" width="60" height="30" as="geometry" />
        </mxCell>
        <mxCell id="y5rQImOxIK2gZxBgFwPA-14" value="SES" style="text;html=1;align=center;verticalAlign=middle;whiteSpace=wrap;rounded=0;" vertex="1" parent="1">
          <mxGeometry x="405" y="460" width="60" height="30" as="geometry" />
        </mxCell>
        <mxCell id="y5rQImOxIK2gZxBgFwPA-15" value="DYNAMODB" style="text;html=1;align=center;verticalAlign=middle;whiteSpace=wrap;rounded=0;" vertex="1" parent="1">
          <mxGeometry x="649" y="248" width="60" height="30" as="geometry" />
        </mxCell>
      </root>
    </mxGraphModel>
  </diagram>
</mxfile>
